<svg xmlns="http://www.w3.org/2000/svg" xmlns:xlink="http://www.w3.org/1999/xlink" width="89.999" height="20.999" viewBox="0 0 89.999 20.999"><defs><style>.a{fill:none;}.b{clip-path:url(#a);}.c{fill:#fff;}.d{fill:#0dbc4f;}</style><clipPath id="a"><rect class="a" width="89.999" height="20.999"/></clipPath></defs><g class="b"><path class="c" d="M128.385,37.569a1.535,1.535,0,0,1-1.127-.474,1.48,1.48,0,0,1-.472-1.121V28.767a3.065,3.065,0,0,0-.9-2.228,3.139,3.139,0,0,0-4.445,0,3.066,3.066,0,0,0-.905,2.228v7.207a1.483,1.483,0,0,1-.472,1.121,1.523,1.523,0,0,1-1.115.474h-.039a1.523,1.523,0,0,1-1.115-.474,1.483,1.483,0,0,1-.472-1.121V28.767a6.373,6.373,0,0,1,6.347-6.378,6.083,6.083,0,0,1,4.471,1.871A6.159,6.159,0,0,1,130,28.767v7.207a1.617,1.617,0,0,1-1.587,1.595Zm-14.632,0a1.537,1.537,0,0,1-1.128-.474,1.48,1.48,0,0,1-.472-1.121V24a1.549,1.549,0,0,1,.472-1.133,1.533,1.533,0,0,1,1.128-.474h.026a1.463,1.463,0,0,1,1.114.474A1.549,1.549,0,0,1,115.366,24V35.974a1.617,1.617,0,0,1-1.587,1.595ZM101.094,36.04,96.216,24.615a1.708,1.708,0,0,1-.131-.632,1.574,1.574,0,0,1,.275-.87,1.5,1.5,0,0,1,1.324-.724h.04a1.46,1.46,0,0,1,1.455.976q3.135,7.366,3.619,8.485,0,.053.525,1.252l4.157-9.737a1.482,1.482,0,0,1,1.469-.976h.026a1.634,1.634,0,0,1,1.6,1.581,1.6,1.6,0,0,1-.144.645L105.566,36.04a2.4,2.4,0,0,1-4.472,0ZM60.4,37.569a1.465,1.465,0,0,1-1.114-.474,1.48,1.48,0,0,1-.472-1.121V28.726a3.1,3.1,0,0,0-3.108-3.109,2.976,2.976,0,0,0-2.19.909,3.007,3.007,0,0,0-.9,2.2v7.248a1.617,1.617,0,0,1-1.587,1.595H51a1.535,1.535,0,0,1-1.128-.474,1.48,1.48,0,0,1-.472-1.121V28.726a3.095,3.095,0,1,0-6.189,0v7.248a1.483,1.483,0,0,1-.472,1.121,1.523,1.523,0,0,1-1.115.474h-.039a1.523,1.523,0,0,1-1.115-.474A1.48,1.48,0,0,1,40,35.974V28.726a6.146,6.146,0,0,1,1.849-4.479,6.059,6.059,0,0,1,4.459-1.858,5.549,5.549,0,0,1,4.707,2.082,5.513,5.513,0,0,1,4.694-2.082,6.06,6.06,0,0,1,4.459,1.858,6.15,6.15,0,0,1,1.849,4.479v7.248a1.593,1.593,0,0,1-1.587,1.595Zm52.065-17.433a1.785,1.785,0,0,1-.537-1.305,1.825,1.825,0,0,1,3.12-1.292,1.805,1.805,0,0,1,0,2.6,1.814,1.814,0,0,1-2.583,0Z" transform="translate(-40 -16.999)"/><path class="d" d="M84.261,37.065A8.942,8.942,0,0,1,80.9,34.089a1.6,1.6,0,0,1,2.609-1.8c.345.355.994,1.03,1.537,1.5a4.267,4.267,0,0,0,.778.54,4.724,4.724,0,0,0,1.206.415c-.121-.025-.027.014.212.054a4.7,4.7,0,0,0,3.991-1.175,4.667,4.667,0,0,0,.052-6.944,3.909,3.909,0,0,0-3.845-1.045,6.355,6.355,0,0,0-2.835,1.611c-.245.241-.982,1.041-1.175,1.251-.184.23-1.319,1.643-2.734,3.26-.908,1.039-1.932,2.162-2.894,3.112a9.944,9.944,0,0,1-2.851,2.2,8.544,8.544,0,0,1-3.775.9,6.91,6.91,0,0,1-3.7-1.129,7.56,7.56,0,0,1-2.022-1.885,7.962,7.962,0,0,1-1.3-2.37,7.674,7.674,0,0,1,1.068-7.037A7.459,7.459,0,0,1,68.1,23.177a9.144,9.144,0,0,1,3.3-.841,8.763,8.763,0,0,1,7.41,3.916,1.6,1.6,0,0,1-2.609,1.8c-.344-.355-.994-1.031-1.536-1.506a4.267,4.267,0,0,0-.778-.54,4.7,4.7,0,0,0-1.206-.417c.121.024.026-.015-.213-.055a4.688,4.688,0,0,0-3.989,1.177,4.909,4.909,0,0,0-1.575,3.51,4.856,4.856,0,0,0,1.523,3.446,3.9,3.9,0,0,0,3.844,1.047A6.377,6.377,0,0,0,75.11,33.1c.658-.65,2.128-2.311,3.447-3.827,1.353-1.552,2.546-2.951,2.546-2.951l.015.013c.152-.17.559-.624.795-.856a9.917,9.917,0,0,1,2.851-2.2,8.561,8.561,0,0,1,3.775-.9,6.917,6.917,0,0,1,3.7,1.127A7.58,7.58,0,0,1,94.262,25.4a7.978,7.978,0,0,1,1.3,2.366,7.653,7.653,0,0,1-1.068,7.025,7.453,7.453,0,0,1-2.872,2.371,9.13,9.13,0,0,1-3.3.84A8.886,8.886,0,0,1,84.261,37.065Z" transform="translate(-40 -16.999)"/></g></svg>